<?xml version="1.0" encoding="UTF-8"?>
<svg width="482px" height="512px" viewBox="0 0 482 512" version="1.1" xmlns="http://www.w3.org/2000/svg" xmlns:xlink="http://www.w3.org/1999/xlink">
    <!-- Generator: Sketch 58 (84663) - https://sketch.com -->
    <title>muffin</title>
    <desc>Created with Sketch.</desc>
    <g id="Page-1" stroke="none" stroke-width="1" fill="none" fill-rule="evenodd">
        <g id="muffin" fill-rule="nonzero">
            <path d="M355.399,512 L126.601,512 C111.837,512 99.135,501.558 96.279,487.073 L54.837,276.893 L427.164,276.893 L385.72,487.073 C382.864,501.558 370.162,512 355.399,512 Z" id="Path" fill="#FBD490"></path>
            <path d="M427.163,276.892 L396.258,276.892 L54.837,276.892 L67.777,342.517 C88.658,342.716 107.386,333.511 119.985,318.866 C124.011,314.186 131.362,314.203 135.39,318.882 C147.855,333.362 166.31,342.535 186.916,342.535 C205.093,342.535 221.597,335.397 233.793,323.776 C237.852,319.908 244.149,319.908 248.208,323.776 C260.404,335.397 276.909,342.535 295.085,342.535 C315.692,342.535 334.148,333.361 346.613,318.88 C350.676,314.16 358.032,314.254 362.103,318.967 C362.194,319.073 362.286,319.178 362.378,319.283 C375.565,334.362 380.904,354.76 377.029,374.413 L354.815,487.072 C351.959,501.558 339.257,512 324.493,512 L355.399,512 C370.163,512 382.864,501.558 385.72,487.073 L414.223,342.517 L427.163,276.892 Z" id="Path" fill="#FBC990"></path>
            <path d="M439.438,180.75 C435.92,179.301 433.453,176.099 433.047,172.315 C422.658,75.441 340.636,0 241,0 C141.364,0 59.342,75.441 48.952,172.315 C48.546,176.098 46.079,179.3 42.561,180.75 C17.269,191.17 -0.36,216.4 0.481,245.642 C1.518,281.691 31.115,310.96 67.173,311.619 C88.234,312.004 107.149,302.804 119.869,288.095 C123.954,283.372 131.313,283.243 135.386,287.976 C147.851,302.457 166.307,311.631 186.914,311.631 C205.091,311.631 221.595,304.493 233.791,292.872 C237.85,289.005 244.147,289.005 248.206,292.872 C260.402,304.493 276.907,311.631 295.083,311.631 C315.69,311.631 334.146,302.457 346.611,287.976 C350.685,283.243 358.044,283.372 362.128,288.095 C374.848,302.804 393.763,312.004 414.824,311.619 C450.882,310.96 480.48,281.692 481.516,245.642 C482.359,216.4 464.73,191.17 439.438,180.75 Z" id="Path" fill="#FF775E"></path>
            <path d="M439.438,180.75 C435.92,179.301 433.453,176.099 433.047,172.315 C422.658,75.441 340.636,0 241,0 C235.797,0 230.646,0.218 225.547,0.621 C318.097,7.948 392.294,80.499 402.142,172.315 C402.548,176.098 405.015,179.3 408.533,180.75 C433.825,191.17 451.454,216.4 450.613,245.642 C449.716,276.837 427.426,302.938 398.076,309.833 C403.445,311.085 409.05,311.724 414.826,311.618 C450.884,310.96 480.482,281.69 481.518,245.642 C482.359,216.4 464.73,191.17 439.438,180.75 Z" id="Path" fill="#FF645E"></path>
            <g id="Group" transform="translate(132.000000, 346.000000)" fill="#FFFFFF">
                <path d="M109,130.74 C100.466,130.74 93.547,123.821 93.547,115.287 L93.547,16.342 C93.547,7.808 100.466,0.889 109,0.889 C117.534,0.889 124.453,7.807 124.453,16.342 L124.453,115.287 C124.453,123.822 117.534,130.74 109,130.74 L109,130.74 Z" id="Path"></path>
                <path d="M31.717,130.742 C24.234,130.742 17.659,125.296 16.469,117.672 L1.016,18.727 C-0.301,10.295 5.467,2.392 13.899,1.075 C22.329,-0.243 30.235,5.526 31.551,13.958 L47.004,112.903 C48.321,121.335 42.553,129.238 34.121,130.555 C33.313,130.682 32.51,130.742 31.717,130.742 L31.717,130.742 Z" id="Path"></path>
                <path d="M186.283,130.742 C185.49,130.742 184.687,130.681 183.88,130.555 C175.448,129.238 169.68,121.335 170.997,112.903 L186.45,13.958 C187.767,5.525 195.675,-0.243 204.102,1.075 C212.534,2.392 218.302,10.295 216.985,18.727 L201.532,117.672 C200.341,125.296 193.765,130.742 186.283,130.742 L186.283,130.742 Z" id="Path"></path>
            </g>
            <circle id="Oval" fill="#FFFFFF" cx="187.456" cy="94.018" r="24.638"></circle>
            <circle id="Oval" fill="#3DC491" cx="296.543" cy="94.018" r="24.638"></circle>
            <circle id="Oval" fill="#3DC491" cx="241" cy="222.967" r="24.638"></circle>
            <g id="Group" transform="translate(89.000000, 170.000000)" fill="#FBD490">
                <circle id="Oval" cx="24.979" cy="25.017" r="24.638"></circle>
                <circle id="Oval" cx="279.021" cy="25.017" r="24.638"></circle>
            </g>
        </g>
    </g>
</svg>