<?xml version="1.0" encoding="UTF-8"?>
<svg width="464px" height="496px" viewBox="0 0 464 496" version="1.1" xmlns="http://www.w3.org/2000/svg" xmlns:xlink="http://www.w3.org/1999/xlink">
    <!-- Generator: Sketch 58 (84663) - https://sketch.com -->
    <title>receipt</title>
    <desc>Created with Sketch.</desc>
    <g id="Page-1" stroke="none" stroke-width="1" fill="none" fill-rule="evenodd">
        <g id="receipt" fill-rule="nonzero">
            <path d="M48,455.96 L336.08,455.96 L336.08,415.96 L368.08,415.96 C376.8,415.96 384,423.152 384,431.96 L384,479.96 C384,488.76 376.8,495.96 368,495.96 L16,495.96 C7.192,495.96 0,488.76 0,479.96 L0,431.96 C0,423.152 7.192,415.96 16,415.96 L48,415.96 L48,455.96 Z" id="Path" fill="#6F7490"></path>
            <path d="M344.064,463.984 L39.952,463.984 C35.528,463.984 31.952,460.408 31.952,455.984 C31.952,451.56 35.528,447.984 39.952,447.984 L344.064,447.984 C348.488,447.984 352.064,451.56 352.064,455.984 C352.064,460.408 348.488,463.984 344.064,463.984 Z" id="Path" fill="#52556C"></path>
            <path d="M80,0.04 C62.32,0.04 48,14.36 48,31.96 L48,424.072 L48,464.072 L336.08,464.072 L336.08,424.072 L336.08,175.96 L336.08,31.96 C336.08,14.36 350.32,0.04 368,0.04 L80,0.04 Z" id="Path" fill="#FFE099"></path>
            <path d="M203.92,51.96 C203.92,58.6 198.64,63.88 192,63.96 L191.92,63.96 C185.28,63.96 179.92,58.6 179.92,51.96 C179.92,45.32 185.28,39.96 191.92,39.96 C198.552,39.96 203.92,45.32 203.92,51.96 L203.92,51.96 Z" id="Path" fill="#AAB2BD"></path>
            <path d="M464,103.96 L464,144.04 C464,161.64 449.68,175.96 432.08,175.96 C414.4,175.96 400.08,161.64 400.08,144.04 L400,144.04 L400,103.96 L416,87.96 L432,103.96 L432.08,103.96 L448,87.96 L464,103.96 Z" id="Path" fill="#FFE099"></path>
            <path d="M432.08,175.96 L336.08,175.96 L336.08,31.96 C336.08,14.36 350.32,0.04 368,0.04 C385.68,0.04 400,14.36 400,31.96 L400,103.96 L400,144.04 L400.08,144.04 C400.08,161.64 414.4,175.96 432.08,175.96 Z" id="Path" fill="#FFBF99"></path>
            <path d="M104,167.952 L280,167.952 L288,167.952 L288,175.952 C288,184.752 280.8,191.952 272,191.952 L112,191.952 C103.12,191.952 96,184.752 96,175.952 L96,167.952 L104,167.952 Z" id="Path" fill="#545C66"></path>
            <path d="M280,167.952 L104,167.952 L104,143.952 C104,95.392 143.36,56.032 191.92,55.952 L192,55.952 C240.552,55.952 280,95.392 280,143.952 L280,167.464 L280,167.952 Z" id="Path" fill="#CCD1D9"></path>
            <path d="M192,55.952 L191.92,55.952 C186.48,55.96 181.176,56.528 176.016,57.48 C216.912,65.04 247.968,100.872 247.968,143.952 L247.968,167.464 L247.968,167.952 L280,167.952 L280,167.464 L280,143.952 C280,95.392 240.552,55.952 192,55.952 L192,55.952 Z" id="Path" fill="#AAB2BD"></path>
            <g id="Group" transform="translate(272.000000, 224.000000)" fill="#A0D468">
                <path d="M24.048,16.088 L8.048,16.088 C3.624,16.088 0.048,12.512 0.048,8.088 C0.048,3.664 3.624,0.088 8.048,0.088 L24.048,0.088 C28.472,0.088 32.048,3.664 32.048,8.088 C32.048,12.512 28.472,16.088 24.048,16.088 Z" id="Path"></path>
                <path d="M24.056,40.088 C21.472,40.088 18.928,38.84 17.392,36.528 L1.392,12.528 C-1.064,8.848 -0.072,3.888 3.608,1.432 C7.288,-1.016 12.248,-0.032 14.704,3.648 L30.704,27.648 C33.16,31.328 32.168,36.288 28.488,38.744 C27.12,39.648 25.576,40.088 24.056,40.088 Z" id="Path"></path>
                <path d="M24.048,40.088 L8.048,40.088 C3.624,40.088 0.048,36.512 0.048,32.088 C0.048,27.664 3.624,24.088 8.048,24.088 L24.048,24.088 C28.472,24.088 32.048,27.664 32.048,32.088 C32.048,36.512 28.472,40.088 24.048,40.088 Z" id="Path"></path>
            </g>
            <path d="M256.048,256.088 L232.064,256.088 C227.64,256.088 224.064,252.512 224.064,248.088 C224.064,243.664 227.64,240.088 232.064,240.088 L256.048,240.088 C260.472,240.088 264.048,243.664 264.048,248.088 C264.048,252.512 260.472,256.088 256.048,256.088 Z" id="Path" fill="#656D78"></path>
            <path d="M143.984,256.088 L87.968,256.088 C83.544,256.088 79.968,252.512 79.968,248.088 C79.968,243.664 83.544,240.088 87.968,240.088 L143.984,240.088 C148.408,240.088 151.984,243.664 151.984,248.088 C151.984,252.512 148.408,256.088 143.984,256.088 Z" id="Path" fill="#FFBF99"></path>
            <path d="M296.048,304.12 L280.048,304.12 C275.624,304.12 272.048,300.544 272.048,296.12 C272.048,291.696 275.624,288.12 280.048,288.12 L296.048,288.12 C300.472,288.12 304.048,291.696 304.048,296.12 C304.048,300.544 300.472,304.12 296.048,304.12 Z" id="Path" fill="#A0D468"></path>
            <path d="M296.056,328.12 C293.472,328.12 290.928,326.872 289.392,324.56 L273.392,300.56 C270.936,296.88 271.928,291.92 275.608,289.464 C279.288,287.016 284.248,288.008 286.704,291.68 L302.704,315.68 C305.16,319.36 304.168,324.32 300.488,326.776 C299.12,327.68 297.576,328.12 296.056,328.12 Z" id="Path" fill="#A0D468"></path>
            <path d="M296.048,328.12 L280.048,328.12 C275.624,328.12 272.048,324.544 272.048,320.12 C272.048,315.696 275.624,312.12 280.048,312.12 L296.048,312.12 C300.472,312.12 304.048,315.696 304.048,320.12 C304.048,324.544 300.472,328.12 296.048,328.12 Z" id="Path" fill="#A0D468"></path>
            <path d="M256.048,320.12 L232.064,320.12 C227.64,320.12 224.064,316.544 224.064,312.12 C224.064,307.696 227.64,304.12 232.064,304.12 L256.048,304.12 C260.472,304.12 264.048,307.696 264.048,312.12 C264.048,316.544 260.472,320.12 256.048,320.12 Z" id="Path" fill="#656D78"></path>
            <path d="M168.016,320.12 L87.968,320.12 C83.544,320.12 79.968,316.544 79.968,312.12 C79.968,307.696 83.544,304.12 87.968,304.12 L168.016,304.12 C172.44,304.12 176.016,307.696 176.016,312.12 C176.016,316.544 172.44,320.12 168.016,320.12 Z" id="Path" fill="#FFBF99"></path>
            <path d="M296.048,368 L87.968,368 C83.544,368 79.968,364.424 79.968,360 C79.968,355.576 83.544,352 87.968,352 L296.048,352 C300.472,352 304.048,355.576 304.048,360 C304.048,364.424 300.472,368 296.048,368 Z" id="Path" fill="#FFFFFF"></path>
            <path d="M296.048,408.072 L280.048,408.072 C275.624,408.072 272.048,404.496 272.048,400.072 C272.048,395.648 275.624,392.072 280.048,392.072 L296.048,392.072 C300.472,392.072 304.048,395.648 304.048,400.072 C304.048,404.496 300.472,408.072 296.048,408.072 Z" id="Path" fill="#A0D468"></path>
            <path d="M296.056,432.072 C293.472,432.072 290.928,430.824 289.392,428.512 L273.392,404.512 C270.936,400.832 271.928,395.872 275.608,393.416 C279.288,390.96 284.248,391.952 286.704,395.632 L302.704,419.632 C305.16,423.312 304.168,428.272 300.488,430.728 C299.12,431.632 297.576,432.072 296.056,432.072 Z" id="Path" fill="#A0D468"></path>
            <path d="M296.048,432.072 L280.048,432.072 C275.624,432.072 272.048,428.496 272.048,424.072 C272.048,419.648 275.624,416.072 280.048,416.072 L296.048,416.072 C300.472,416.072 304.048,419.648 304.048,424.072 C304.048,428.496 300.472,432.072 296.048,432.072 Z" id="Path" fill="#A0D468"></path>
            <path d="M256.048,424.072 L232.064,424.072 C227.64,424.072 224.064,420.496 224.064,416.072 C224.064,411.648 227.64,408.072 232.064,408.072 L256.048,408.072 C260.472,408.072 264.048,411.648 264.048,416.072 C264.048,420.496 260.472,424.072 256.048,424.072 Z" id="Path" fill="#656D78"></path>
            <path d="M111.952,424.072 L87.968,424.072 C83.544,424.072 79.968,420.496 79.968,416.072 C79.968,411.648 83.544,408.072 87.968,408.072 L111.952,408.072 C116.376,408.072 119.952,411.648 119.952,416.072 C119.952,420.496 116.376,424.072 111.952,424.072 Z" id="Path" fill="#FFBF99"></path>
            <path d="M287.976,175.96 L95.992,175.96 C91.568,175.96 87.992,172.384 87.992,167.96 C87.992,163.536 91.568,159.96 95.992,159.96 L287.976,159.96 C292.4,159.96 295.976,163.536 295.976,167.96 C295.976,172.384 292.4,175.96 287.976,175.96 Z" id="Path" fill="#656D78"></path>
        </g>
    </g>
</svg>