<?xml version="1.0" encoding="UTF-8"?>
<svg width="39px" height="56px" viewBox="0 0 39 56" version="1.1" xmlns="http://www.w3.org/2000/svg" xmlns:xlink="http://www.w3.org/1999/xlink">
    <!-- Generator: Sketch 58 (84663) - https://sketch.com -->
    <title>kebab</title>
    <desc>Created with Sketch.</desc>
    <g id="Page-1" stroke="none" stroke-width="1" fill="none" fill-rule="evenodd">
        <g id="kebab" fill-rule="nonzero">
            <path d="M15.554,29.603 C15.554,27.688 15.855,26.019 16.371,24.56 C15.879,23.281 15.554,22.381 15.554,22.118 C15.554,12.26 7.624,8.849 2.929,7.693 C2.735,7.645 2.554,7.797 2.554,7.997 L2.554,35.649 C6.26,36.789 10.079,37.431 13.912,37.573 C14.906,35.545 15.554,32.958 15.554,29.603 Z" id="Path" fill="#FFE099"></path>
            <path d="M20.486,18.818 C20.285,17.646 19.579,16.649 18.598,16.06 C19.186,15.364 19.554,14.476 19.554,13.494 C19.554,12.985 19.45,12.503 19.277,12.056 C19.748,12.105 20.202,11.841 20.298,11.355 C20.36,11.043 20.455,10.742 20.553,10.479 C20.81,9.795 21.731,9.701 22.149,10.3 C22.165,10.323 22.181,10.346 22.196,10.37 C22.319,10.554 22.496,10.654 22.686,10.712 C22.665,10.111 22.787,9.599 22.957,9.204 C23.232,8.562 24.088,8.464 24.53,9.005 C24.601,9.092 24.669,9.182 24.735,9.275 C25.2,9.933 26.13,9.937 26.625,9.301 C26.877,8.978 27.155,8.745 27.384,8.61 C25.334,4.683 20.799,2.603 15.554,2.603 C14.253,2.603 12.997,2.557 11.811,2.525 C11.858,2.691 11.9,2.862 11.931,3.039 C12.03,3.613 12.63,3.921 13.182,3.735 C13.623,3.587 14.103,3.557 14.523,3.829 C14.605,3.882 14.653,3.981 14.644,4.078 C14.619,4.346 14.458,4.779 14.14,5.209 C13.66,5.857 13.912,6.751 14.671,7.023 C14.778,7.061 14.884,7.103 14.986,7.148 C15.625,7.429 15.76,8.28 15.215,8.717 C14.723,9.112 13.433,11.296 11.999,12.602 C14.066,14.793 15.555,17.849 15.555,22.117 C15.555,22.38 15.88,23.281 16.372,24.559 C17.259,22.052 18.792,20.181 20.547,18.773 C20.527,18.789 20.506,18.802 20.486,18.818 Z" id="Path" fill="#FFE099"></path>
            <path d="M28.554,35.648 L28.554,15.088 C23.922,16.153 15.554,19.477 15.554,29.603 C15.554,32.96 14.905,35.546 13.909,37.572 C18.837,37.756 23.789,37.114 28.554,35.648 Z" id="Path" fill="#EEAF4B"></path>
            <path d="M2.93,7.692 C5.592,8.348 9.292,9.732 11.999,12.602 C13.433,11.296 14.723,9.112 15.215,8.717 C15.76,8.28 15.625,7.429 14.986,7.148 C14.884,7.103 14.778,7.062 14.671,7.023 C13.912,6.751 13.66,5.856 14.14,5.209 C14.459,4.779 14.62,4.346 14.644,4.078 C14.653,3.98 14.605,3.882 14.523,3.829 C14.103,3.557 13.623,3.587 13.182,3.735 C12.63,3.92 12.03,3.612 11.931,3.039 C11.877,2.726 11.789,2.422 11.697,2.157 C11.457,1.468 10.538,1.35 10.106,1.939 C10.089,1.962 10.073,1.984 10.057,2.008 C9.93,2.188 9.75,2.284 9.559,2.338 C9.595,1.738 9.485,1.223 9.325,0.824 C9.065,0.176 8.212,0.056 7.758,0.586 C7.685,0.671 7.615,0.76 7.547,0.851 C7.066,1.498 6.137,1.478 5.657,0.831 C5.338,0.401 4.971,0.121 4.722,0.019 C4.629,-0.018 4.522,-6.73511447e-05 4.447,0.063 C4.065,0.386 3.953,0.853 3.967,1.319 C3.984,1.901 3.515,2.385 2.937,2.313 C2.622,2.273 2.305,2.269 2.025,2.28 C1.296,2.31 0.916,3.154 1.353,3.739 C1.37,3.761 1.387,3.784 1.404,3.806 C1.765,4.268 1.596,4.923 1.083,5.209 C0.877,5.323 0.724,5.459 0.625,5.563 C0.54,5.653 0.529,5.796 0.606,5.894 C1.053,6.461 1.835,7.207 2.582,7.873 C2.638,7.74 2.778,7.655 2.93,7.692 Z" id="Path" fill="#3DC491"></path>
            <path d="M15.554,9.495 C15.166,9.495 14.795,9.561 14.441,9.664 C13.809,10.523 12.937,11.747 11.998,12.602 C11.94,12.541 11.876,12.49 11.818,12.43 C13.031,13.671 14.047,15.206 14.714,17.086 C14.601,16.77 14.49,16.452 14.358,16.155 C14.989,15.739 15.742,15.494 16.554,15.494 C17.302,15.494 17.993,15.712 18.591,16.069 C19.183,15.371 19.554,14.48 19.554,13.494 C19.554,11.285 17.763,9.495 15.554,9.495 Z" id="Path" fill="#ED3F32"></path>
            <path d="M15.947,23.434 C16.146,23.464 16.346,23.495 16.554,23.495 C16.648,23.495 16.735,23.474 16.828,23.467 C17.726,21.526 19.022,20.005 20.486,18.818 C20.163,16.933 18.532,15.494 16.554,15.494 C15.742,15.494 14.989,15.739 14.358,16.155 C15.099,17.822 15.554,19.783 15.554,22.117 C15.554,22.294 15.703,22.762 15.947,23.434 Z" id="Path" fill="#6A3311"></path>
            <path d="M31.539,14.153 C31.443,14.047 31.293,13.907 31.09,13.787 C30.585,13.489 30.432,12.83 30.804,12.377 C30.822,12.355 30.84,12.333 30.857,12.311 C31.308,11.737 30.95,10.884 30.221,10.836 C29.941,10.818 29.625,10.815 29.308,10.846 C28.729,10.904 28.272,10.408 28.303,9.827 C28.328,9.362 28.228,8.892 27.853,8.56 C27.78,8.495 27.672,8.475 27.581,8.51 C27.33,8.606 26.956,8.876 26.626,9.299 C26.13,9.934 25.201,9.931 24.736,9.273 C24.67,9.18 24.602,9.09 24.531,9.003 C24.09,8.462 23.234,8.56 22.958,9.202 C22.788,9.597 22.666,10.109 22.687,10.71 C22.497,10.652 22.32,10.552 22.197,10.368 C22.181,10.345 22.166,10.321 22.15,10.298 C21.732,9.699 20.811,9.794 20.554,10.477 C20.455,10.74 20.36,11.041 20.299,11.353 C20.203,11.839 19.748,12.103 19.278,12.054 C19.451,12.502 19.555,12.984 19.555,13.492 C19.555,14.474 19.187,15.362 18.599,16.058 C19.579,16.646 20.286,17.644 20.487,18.816 C23.126,16.678 26.287,15.607 28.555,15.086 L28.555,16.377 C28.767,16.325 28.983,16.268 29.184,16.224 C29.336,16.19 29.475,16.279 29.527,16.414 C30.29,15.767 31.09,15.04 31.551,14.483 C31.629,14.389 31.622,14.246 31.539,14.153 Z" id="Path" fill="#298A65"></path>
            <path d="M18.554,7.495 C16.9,7.495 15.554,6.149 15.554,4.495 C15.554,3.942 16.001,3.495 16.554,3.495 C17.107,3.495 17.554,3.942 17.554,4.495 C17.554,5.047 18.002,5.495 18.554,5.495 C19.107,5.495 19.554,5.942 19.554,6.495 C19.554,7.048 19.107,7.495 18.554,7.495 Z" id="Path" fill="#FFFFFF"></path>
            <path d="M19.554,9.495 C19.001,9.495 18.554,9.048 18.554,8.495 C18.554,7.942 19.001,7.495 19.554,7.495 C20.106,7.495 20.554,7.047 20.554,6.495 C20.554,5.942 21.001,5.495 21.554,5.495 C22.107,5.495 22.554,5.942 22.554,6.495 C22.554,8.149 21.208,9.495 19.554,9.495 Z" id="Path" fill="#FFFFFF"></path>
            <path d="M29.554,48.784 C29.554,52.262 26.708,55.109 23.23,55.109 L7.879,55.109 C4.401,55.109 1.555,52.263 1.555,48.785 L1.555,35.935 C1.555,35.544 1.924,35.268 2.3,35.375 C10.416,37.687 20.694,37.687 28.81,35.375 C29.186,35.268 29.555,35.544 29.555,35.935 L29.554,48.784 Z" id="Path" fill="#ED3F32"></path>
            <path d="M29.554,49.221 L38.536,45.694 C38.559,45.677 38.559,45.652 38.536,45.635 L29.554,42.108 L29.554,49.221 Z" id="Path" fill="#ED3F32"></path>
            <path d="M7.554,51.108 C7.001,51.108 6.554,50.661 6.554,50.108 C6.554,49.555 7.001,49.108 7.554,49.108 C17.311,49.108 25.554,44.987 25.554,40.108 C25.554,39.555 26.001,39.108 26.554,39.108 C27.107,39.108 27.554,39.555 27.554,40.108 C27.554,46.276 18.769,51.108 7.554,51.108 Z" id="Path" fill="#FFFFFF"></path>
            <path d="M35.536,39.108 C35.559,39.091 35.559,39.066 35.536,39.049 L29.554,38.108 L29.554,42.108 L31.755,42.972 L35.536,39.108 Z" id="Path" fill="#ED3F32"></path>
            <circle id="Oval" fill="#E0BB80" cx="6.031" cy="27.031" r="2.031"></circle>
            <circle id="Oval" fill="#E0BB80" cx="6.585" cy="14.969" r="2.031"></circle>
            <circle id="Oval" fill="#DC9628" cx="26.031" cy="28.031" r="2.031"></circle>
            <circle id="Oval" fill="#DC9628" cx="20.554" cy="24" r="2.031"></circle>
            <circle id="Oval" fill="#FBD490" cx="14.867" cy="24.438" r="1"></circle>
            <circle id="Oval" fill="#DC9628" cx="18.742" cy="31.188" r="1"></circle>
            <circle id="Oval" fill="#DC9628" cx="23.813" cy="32.813" r="1"></circle>
            <circle id="Oval" fill="#DC9628" cx="25.742" cy="18.813" r="1"></circle>
            <circle id="Oval" fill="#DC9628" cx="19.367" cy="35.188" r="1"></circle>
            <circle id="Oval" fill="#C6A473" cx="7.742" cy="33.188" r="1"></circle>
            <circle id="Oval" fill="#C6A473" cx="12.367" cy="34.188" r="1"></circle>
            <circle id="Oval" fill="#C6A473" cx="10.813" cy="22.813" r="1"></circle>
            <circle id="Oval" fill="#FBD490" cx="10.367" cy="19.813" r="1"></circle>
        </g>
    </g>
</svg>