<?xml version="1.0" encoding="UTF-8"?>
<svg width="496px" height="424px" viewBox="0 0 496 424" version="1.1" xmlns="http://www.w3.org/2000/svg" xmlns:xlink="http://www.w3.org/1999/xlink">
    <!-- Generator: Sketch 58 (84663) - https://sketch.com -->
    <title>location</title>
    <desc>Created with Sketch.</desc>
    <g id="Page-1" stroke="none" stroke-width="1" fill="none" fill-rule="evenodd">
        <g id="location" fill-rule="nonzero">
            <polygon id="Path" fill="#3DC491" points="474.64 360 453.36 328 416 272 80 272 58.64 304 0 392 70.8 392 425.2 392 496 392"></polygon>
            <path d="M231.2,312 C221.6,302.232 208.792,288.488 195.432,272 C163.2,232.08 128,175.68 128,120 C128,53.76 181.68,0 248,0 C314.32,0 368,53.76 368,120 C368,175.68 332.8,232.08 300.56,272 C287.2,288.488 274.392,302.232 264.792,312 L264.712,312 C254.632,322.16 247.992,328 247.992,328 C247.992,328 241.36,322.16 231.2,312 L231.2,312 Z" id="Path" fill="#FF775E"></path>
            <polygon id="Path" fill="#298A65" points="474.64 360 426.72 360 426.64 360 394.64 328 453.36 328"></polygon>
            <polygon id="Path" fill="#298A65" points="296.8 344 331.44 312 374.96 384 185.04 384 153.04 352"></polygon>
            <g id="Group" transform="translate(0.000000, 304.000000)" fill="#FFE099">
                <polygon id="Path" points="474.64 56 496 88 425.2 88 409.92 56"></polygon>
                <path d="M248,24 C248,24 254.64,18.16 264.72,8 L264.8,8 L331.44,8 L342.96,48 L153.04,48 L164.56,8 L231.2,8 C241.36,18.16 248,24 248,24 Z" id="Path"></path>
                <polygon id="Path" points="112.72 0 70.8 88 0 88 58.64 0"></polygon>
            </g>
            <polygon id="Path" fill="#298A65" points="144.72 336 118.04 392 70.8 392 112.72 304"></polygon>
            <polygon id="Path" fill="#298A65" points="496 392 496 424 0 424 0 392 70.8 392 425.2 392"></polygon>
            <polygon id="Path" fill="#FFE099" points="453.36 328 394.72 328 394.64 328 368 272 416 272"></polygon>
            <circle id="Oval" fill="#FFC299" cx="247.976" cy="52.008" r="12"></circle>
            <path d="M247.976,56 C292.144,56 327.976,91.84 327.976,136 L327.976,144 L167.976,144 L167.976,136 C167.976,91.84 203.824,56 247.976,56 Z" id="Path" fill="#FFE099"></path>
            <path d="M247.976,56 C243.88,56 239.888,56.408 235.968,57 C274.424,62.816 303.952,95.936 303.952,136 L303.952,144 L327.976,144 L327.976,136 C327.976,91.84 292.144,56 247.976,56 Z" id="Path" fill="#FFC299"></path>
            <path d="M327.976,152 C327.976,160.88 320.856,168 311.976,168 L183.976,168 C175.176,168 167.976,160.88 167.976,152 L167.976,144 L327.976,144 L327.976,152 Z" id="Path" fill="#FFE099"></path>
            <path d="M327.992,152.016 L168.008,152.016 C163.584,152.016 160.008,148.44 160.008,144.016 C160.008,139.592 163.584,136.016 168.008,136.016 L327.992,136.016 C332.416,136.016 335.992,139.592 335.992,144.016 C335.992,148.44 332.416,152.016 327.992,152.016 Z" id="Path" fill="#FFFFFF"></path>
        </g>
    </g>
</svg>