<?xml version="1.0" encoding="UTF-8"?>
<svg width="417px" height="512px" viewBox="0 0 417 512" version="1.1" xmlns="http://www.w3.org/2000/svg" xmlns:xlink="http://www.w3.org/1999/xlink">
    <!-- Generator: Sketch 58 (84663) - https://sketch.com -->
    <title>pizza</title>
    <desc>Created with Sketch.</desc>
    <g id="Page-1" stroke="none" stroke-width="1" fill="none" fill-rule="evenodd">
        <g id="pizza" fill-rule="nonzero">
            <g id="Group" transform="translate(60.000000, 253.000000)" fill="#FFEBA1">
                <path d="M273.210938,1.667969 C270.734375,0.371094 267.742188,0.5625 265.449219,2.15625 L227.734375,28.390625 C225.71875,29.792969 224.515625,32.097656 224.515625,34.554688 L224.515625,147.15625 C224.515625,161.695312 236.34375,173.519531 250.878906,173.519531 C265.414062,173.519531 277.242188,161.695312 277.242188,147.15625 L277.242188,8.320312 C277.242188,5.527344 275.6875,2.960938 273.210938,1.667969 L273.210938,1.667969 Z" id="Path"></path>
                <path d="M189.445312,59.9375 C186.964844,58.640625 183.976562,58.832031 181.679688,60.425781 L143.96875,86.660156 C141.949219,88.0625 140.75,90.367188 140.75,92.824219 L140.75,131.234375 C140.75,145.769531 152.574219,157.597656 167.113281,157.597656 C181.648438,157.597656 193.476562,145.769531 193.476562,131.234375 L193.476562,66.589844 C193.476562,63.792969 191.921875,61.230469 189.445312,59.9375 L189.445312,59.9375 Z" id="Path"></path>
                <path d="M49.457031,157.3125 C46.976562,156.019531 43.988281,156.207031 41.691406,157.804688 L3.980469,184.035156 C1.964844,185.441406 0.761719,187.742188 0.761719,190.199219 L0.761719,232.636719 C0.761719,247.171875 12.585938,259 27.125,259 C41.660156,259 53.488281,247.171875 53.488281,232.636719 L53.488281,163.96875 C53.488281,161.171875 51.933594,158.609375 49.457031,157.3125 Z" id="Path"></path>
            </g>
            <path d="M333.210938,254.667969 C330.734375,253.371094 327.742188,253.5625 325.449219,255.15625 L310.878906,265.292969 L310.878906,400.15625 C310.878906,409.894531 305.570312,418.410156 297.699219,422.972656 C301.578125,425.226562 306.078125,426.519531 310.878906,426.519531 C325.414062,426.519531 337.242188,414.695312 337.242188,400.15625 L337.242188,261.320312 C337.242188,258.527344 335.6875,255.960938 333.210938,254.667969 Z" id="Path" fill="#F7D36F"></path>
            <path d="M249.445312,312.9375 C246.964844,311.640625 243.976562,311.832031 241.679688,313.425781 L227.113281,323.5625 L227.113281,384.234375 C227.113281,393.972656 221.800781,402.484375 213.929688,407.050781 C217.8125,409.300781 222.3125,410.597656 227.113281,410.597656 C241.648438,410.597656 253.476562,398.773438 253.476562,384.234375 L253.476562,319.589844 C253.476562,316.792969 251.921875,314.230469 249.445312,312.9375 L249.445312,312.9375 Z" id="Path" fill="#F7D36F"></path>
            <path d="M109.457031,410.3125 C106.976562,409.019531 103.988281,409.207031 101.691406,410.804688 L87.125,420.9375 L87.125,485.636719 C87.125,495.371094 81.8125,503.886719 73.941406,508.453125 C77.824219,510.703125 82.324219,511.996094 87.125,511.996094 C101.660156,511.996094 113.488281,500.171875 113.488281,485.636719 L113.488281,416.964844 C113.488281,414.171875 111.933594,411.609375 109.457031,410.3125 Z" id="Path" fill="#F7D36F"></path>
            <path d="M372.203125,231.78125 C371.214844,230.363281 370.472656,228.824219 370.003906,227.21875 C369.945312,227.03125 364.242188,208.011719 344.527344,180.953125 C325.871094,155.351562 291.019531,118.207031 230.9375,86.652344 C170.851562,55.097656 120.492188,47.488281 88.824219,46.664062 C55.375,45.78125 36.464844,51.886719 36.277344,51.949219 C34.703125,52.464844 33.042969,52.726562 31.335938,52.726562 C31.300781,52.726562 31.261719,52.726562 31.234375,52.726562 C29.253906,52.726562 27.351562,53.507812 25.949219,54.902344 C24.53125,56.304688 23.734375,58.210938 23.726562,60.203125 L22.0194649,470.117188 C22.007812,472.917969 23.554688,475.492188 26.035156,476.796875 C27.132812,477.371094 28.332031,477.65625 29.523438,477.65625 C31.03125,477.65625 32.53125,477.203125 33.8125,476.3125 L370.324219,242.230469 C373.726562,239.863281 374.570312,235.183594 372.203125,231.78125 Z" id="Path" fill="#FFE099"></path>
            <path d="M26.035156,476.796875 C27.132812,477.375 28.328125,477.65625 29.523438,477.65625 C31.03125,477.65625 32.53125,477.203125 33.8125,476.3125 L370.324219,242.230469 C373.726562,239.863281 374.566406,235.183594 372.199219,231.78125 C371.214844,230.363281 370.472656,228.824219 370,227.21875 C369.964844,227.09375 367.320312,218.300781 359.488281,204.226562 L22.152344,438.113281 L22.0194649,470.121094 C22.007812,472.917969 23.554688,475.496094 26.035156,476.796875 Z" id="Path" fill="#FFD064"></path>
            <path d="M143.501265,175 C126.682928,175 113,188.683497 113,205.5 C113,222.319035 126.682928,236 143.501265,236 C160.319601,236 174,222.319035 174,205.5 C174,188.680966 160.319601,175 143.501265,175 Z" id="Path" fill="#FF775E"></path>
            <path d="M143.501265,214.681813 C130.453516,214.681813 119.296121,206.484834 114.948558,195 C113.693383,198.318064 113,201.908019 113,205.659094 C113,222.390397 126.682928,236 143.498734,236 C160.317071,236 174,222.390397 174,205.659094 C174,201.910537 173.306617,198.318064 172.051441,195 C167.703879,206.484834 156.549015,214.681813 143.501265,214.681813 Z" id="Path" fill="#F74D2E"></path>
            <path d="M63.203125,236.761719 C54.578125,227.9375 43.039062,222.90625 30.710938,222.600833 C28.699219,222.574219 26.742188,223.316406 25.292969,224.71875 C23.847656,226.125 23.027344,228.054688 23.019531,230.074219 L22.6912798,309.175781 C22.679688,311.195312 23.484375,313.128906 24.921875,314.546875 C26.328125,315.9375 28.222656,316.714844 30.195312,316.714844 L30.320312,316.714844 C55.84375,316.289062 76.605469,295.175781 76.605469,269.652344 C76.605469,257.285156 71.84375,245.601562 63.203125,236.761719 L63.203125,236.761719 Z" id="Path" fill="#FF775E"></path>
            <path d="M30.320312,283.164062 C30.277344,283.167969 30.238281,283.167969 30.195312,283.167969 C28.222656,283.167969 26.328125,282.390625 24.917969,281 C23.828125,279.921875 23.101562,278.542969 22.820312,277.058594 L22.6874436,309.175781 C22.679688,311.195312 23.484375,313.128906 24.917969,314.546875 C26.324219,315.9375 28.21875,316.714844 30.195312,316.714844 L30.320312,316.714844 C55.839844,316.289062 76.601562,295.175781 76.601562,269.652344 C76.601562,263.804688 75.527344,258.117188 73.492188,252.808594 C66.792969,270.238281 49.972656,282.839844 30.320312,283.164062 L30.320312,283.164062 Z" id="Path" fill="#F74D2E"></path>
            <path d="M260.867188,236.109375 C234.90625,236.109375 213.789062,257.230469 213.789062,283.1875 C213.789062,302.296875 225.199219,319.371094 242.855469,326.691406 C243.78125,327.074219 244.757812,327.261719 245.730469,327.261719 C247.242188,327.261719 248.738281,326.808594 250.015625,325.917969 L304.691406,287.886719 C306.785156,286.425781 308,284.003906 307.90625,281.449219 C306.980469,256.023438 286.316406,236.109375 260.867188,236.109375 L260.867188,236.109375 Z" id="Path" fill="#FF775E"></path>
            <path d="M322.597656,154.710938 C307.902344,139.191406 290.902344,124.671875 272.0625,111.558594 C270.257812,110.304688 268.003906,109.90625 265.882812,110.453125 C245.15625,115.84375 230.683594,134.582031 230.683594,156.015625 C230.683594,181.976562 251.804688,203.097656 277.761719,203.097656 C302.132812,203.097656 322.277344,184.824219 324.617188,160.59375 C324.824219,158.429688 324.089844,156.285156 322.597656,154.710938 L322.597656,154.710938 Z" id="Path" fill="#FF775E"></path>
            <path d="M316.4375,148.410156 C307.921875,160.667969 293.753906,168.53125 277.761719,168.53125 C257.894531,168.53125 240.875,156.15625 233.972656,138.714844 C231.84375,144.105469 230.683594,149.953125 230.683594,156.015625 C230.683594,181.976562 251.804688,203.09375 277.761719,203.09375 C302.132812,203.09375 322.277344,184.824219 324.617188,160.589844 C324.824219,158.429688 324.089844,156.285156 322.597656,154.707031 C320.589844,152.589844 318.53125,150.492188 316.4375,148.410156 L316.4375,148.410156 Z" id="Path" fill="#F74D2E"></path>
            <path d="M163.125,62.675781 C162.429688,60.113281 160.4375,58.113281 157.878906,57.402344 C134.210938,50.855469 110.980469,47.242188 88.824219,46.664062 C87.230469,46.621094 85.679688,46.601562 84.15625,46.589844 C84.136719,46.589844 84.117188,46.589844 84.097656,46.589844 C81.511719,46.589844 79.101562,47.921875 77.730469,50.121094 C73.070312,57.585938 70.609375,66.195312 70.609375,75.011719 C70.609375,100.972656 91.730469,122.089844 117.6875,122.089844 C143.648438,122.089844 164.769531,100.972656 164.769531,75.011719 C164.769531,70.851562 164.214844,66.703125 163.125,62.675781 Z" id="Path" fill="#FF775E"></path>
            <path d="M160.949219,59.125 C153.734375,75.882812 137.0625,87.648438 117.6875,87.648438 C97.800781,87.648438 80.765625,75.246094 73.878906,57.777344 C71.730469,63.238281 70.609375,69.074219 70.609375,75.011719 C70.609375,100.972656 91.730469,122.09375 117.6875,122.09375 C143.648438,122.09375 164.765625,100.972656 164.765625,75.011719 C164.765625,70.855469 164.214844,66.703125 163.121094,62.675781 C162.746094,61.285156 161.976562,60.066406 160.949219,59.125 Z" id="Path" fill="#F74D2E"></path>
            <path d="M182.796875,365.488281 C175.484375,347.8125 158.40625,336.394531 139.285156,336.394531 C113.324219,336.394531 92.203125,357.511719 92.203125,383.472656 C92.203125,396.53125 97.707031,409.121094 107.296875,418.007812 C108.730469,419.332031 110.558594,420.007812 112.402344,420.007812 C113.894531,420.007812 115.390625,419.566406 116.6875,418.664062 L180.148438,374.519531 C183.042969,372.507812 184.144531,368.75 182.796875,365.488281 L182.796875,365.488281 Z" id="Path" fill="#FF775E"></path>
            <path d="M414.761719,214.066406 C413.578125,210.03125 384.25,114.515625 252.71875,45.398438 C252.667969,45.371094 252.621094,45.34375 252.570312,45.320312 C120.988281,-23.757812 25.691406,6.320312 21.699219,7.632812 C5.550781,12.945312 -3.265625,30.410156 2.046875,46.558594 C4.621094,54.382812 10.085938,60.734375 17.4375,64.445312 C24.789062,68.160156 33.148438,68.785156 40.882812,66.238281 C41.054688,66.183594 58.5,60.894531 88.433594,61.671875 C118.507812,62.457031 166.429688,69.734375 223.957031,99.945312 C281.484375,130.15625 314.675781,165.480469 332.390625,189.792969 C350.023438,213.992188 355.566406,231.363281 355.59375,231.445312 C357.917969,239.347656 363.175781,245.871094 370.40625,249.816406 C375.003906,252.328125 380.042969,253.601562 385.136719,253.601562 C388.054688,253.601562 390.992188,253.183594 393.871094,252.335938 C401.773438,250.015625 408.296875,244.753906 412.246094,237.523438 C416.1875,230.296875 417.082031,221.964844 414.761719,214.066406 Z" id="Path" fill="#FFB45E"></path>
            <path d="M396.789062,229.300781 C396.757812,229.199219 390.148438,208.5 369.140625,179.664062 C348.027344,150.691406 308.472656,108.597656 239.921875,72.59375 C171.367188,36.59375 114.261719,27.921875 78.425781,26.984375 C42.75,26.058594 21.964844,32.363281 21.757812,32.429688 C14.902344,34.683594 7.636719,34.847656 0.761719,32.960938 C0.179688,37.398438 0.554688,42.03125 2.046875,46.558594 C4.621094,54.382812 10.085938,60.734375 17.4375,64.445312 C24.789062,68.160156 33.148438,68.785156 40.882812,66.238281 C41.054688,66.183594 58.5,60.894531 88.433594,61.671875 C118.507812,62.457031 166.429688,69.734375 223.957031,99.945312 C281.484375,130.15625 314.675781,165.480469 332.390625,189.792969 C350.023438,213.992188 355.566406,231.363281 355.59375,231.445312 C357.917969,239.347656 363.175781,245.871094 370.40625,249.816406 C375.003906,252.328125 380.042969,253.601562 385.136719,253.601562 C388.054688,253.601562 390.992188,253.183594 393.871094,252.335938 C398.605469,250.945312 402.84375,248.492188 406.332031,245.195312 C401.882812,240.855469 398.589844,235.429688 396.789062,229.300781 Z" id="Path" fill="#EB9F48"></path>
            <path d="M242.855469,326.691406 C243.78125,327.074219 244.757812,327.261719 245.730469,327.261719 C247.242188,327.261719 248.738281,326.808594 250.015625,325.917969 L304.691406,287.886719 C306.785156,286.425781 308,284.003906 307.90625,281.449219 C307.449219,268.941406 302.210938,257.773438 293.980469,249.644531 L217.875,302.414062 C222.679688,313.183594 231.464844,321.96875 242.855469,326.691406 L242.855469,326.691406 Z" id="Path" fill="#F74D2E"></path>
            <path d="M107.300781,418.007812 C108.730469,419.332031 110.5625,420.007812 112.402344,420.007812 C113.894531,420.007812 115.394531,419.566406 116.6875,418.664062 L180.148438,374.519531 C183.042969,372.507812 184.144531,368.746094 182.796875,365.488281 C178.46875,355.023438 170.714844,346.753906 161.140625,341.746094 L92.582031,389.28125 C93.953125,400.207031 99.140625,410.449219 107.300781,418.007812 Z" id="Path" fill="#F74D2E"></path>
        </g>
    </g>
</svg>