<?xml version="1.0" encoding="UTF-8"?>
<svg width="496px" height="402px" viewBox="0 0 496 402" version="1.1" xmlns="http://www.w3.org/2000/svg" xmlns:xlink="http://www.w3.org/1999/xlink">
    <!-- Generator: Sketch 58 (84663) - https://sketch.com -->
    <title>moped</title>
    <desc>Created with Sketch.</desc>
    <g id="Page-1" stroke="none" stroke-width="1" fill="none" fill-rule="evenodd">
        <g id="moped" fill-rule="nonzero">
            <path d="M247.936,80.992 C247.936,85.392 244.336,88.992 239.936,88.992 L63.936,88.992 C59.536,88.992 55.936,85.392 55.936,80.992 L55.936,65 C55.936,60.6 59.536,57 63.936,57 L239.936,57 C244.336,57 247.936,60.6 247.936,65 L247.936,80.992 Z" id="Path" fill="#FFE099"></path>
            <path d="M24.048,225.048 L24.048,257.048 L16.048,257.048 C7.16,257.048 0.048,249.856 0.048,241.048 C0.048,232.176 7.16,225.048 16.048,225.048 L24.048,225.048 Z" id="Path" fill="#FF8C76"></path>
            <path d="M72.048,337.04 L136.048,337.04 C136.048,354.72 121.72,369.04 104.048,369.04 C86.44,369.04 72.048,354.72 72.048,337.04 Z" id="Path" fill="#FFFFFF"></path>
            <path d="M136.048,337.04 L168.048,337.04 C168.048,372.4 139.408,401.04 104.048,401.04 C68.768,401.04 40.048,372.4 40.048,337.04 L72.048,337.04 C72.048,354.72 86.44,369.04 104.048,369.04 C121.72,369.04 136.048,354.72 136.048,337.04 Z" id="Path" fill="#6F7490"></path>
            <path d="M392.048,337.04 C392.048,354.72 406.36,369.04 424.048,369.04 C441.72,369.04 456.048,354.72 456.048,337.04 L456.048,336.96 L488.048,336.96 L488.048,337.04 C488.048,372.4 459.408,401.04 424.048,401.04 C388.672,401.04 360.048,372.4 360.048,337.04 L360.048,336.96 L392.048,336.96 L392.048,337.04 Z" id="Path" fill="#6F7490"></path>
            <path d="M424.04,8.96 C428.44,8.96 432.04,12.56 432.04,16.96 L432.04,65.04 C432.04,69.44 428.44,73.04 424.04,73.04 L416.04,73.04 C411.64,73.04 408.04,69.44 408.04,65.04 L408.04,16.96 C408.04,12.56 411.64,8.96 416.04,8.96 L424.04,8.96 Z" id="Path" fill="#FFE099"></path>
            <path d="M240.048,153.048 C244.448,153.048 248.048,156.648 248.048,161.048 L248.048,176.968 C248.048,181.368 244.448,184.968 240.048,184.968 L64.048,184.968 C59.648,184.968 56.048,181.368 56.048,176.968 L56.048,161.048 C56.048,156.648 59.648,153.048 64.048,153.048 L240.048,153.048 Z" id="Path" fill="#595E75"></path>
            <path d="M40.048,337.04 C35.648,337.04 32.048,333.44 32.048,329.04 L32.048,289.024 C32.048,284.624 33.848,281.024 36.048,281.024 C38.248,281.024 43.648,281.024 48.048,281.024 L64.048,281.024 L80.048,281.024 L128.048,281.024 L144.048,281.024 L160.048,281.024 L172.048,281.024 C172.048,281.024 176.048,284.624 176.048,289.024 L176.048,329.04 C176.048,333.44 172.448,337.04 168.048,337.04 L40.048,337.04 Z" id="Path" fill="#595E75"></path>
            <path d="M288.048,25.04 C296.848,25.04 304.048,32.168 304.048,41.04 C304.048,49.848 296.848,57.04 288.048,57.04 C279.16,57.04 272.048,49.848 272.048,41.04 C272.048,32.168 279.16,25.04 288.048,25.04 Z" id="Path" fill="#595E75"></path>
            <path d="M392.048,336.96 L360.048,336.96 L338.048,337.04 C381.408,336.08 416.208,300.64 416.208,257.04 C460.288,257.12 495.96,292.808 495.96,336.96 L488.056,336.96 L456.056,336.96 L392.048,336.96 Z" id="Path" fill="#298A65"></path>
            <path d="M360.048,57.04 C368.848,57.04 376.048,49.848 376.048,41.04 C376.048,32.168 368.848,25.04 360.048,25.04 L315.408,25.04 C321.64,10.88 335.72,1.04 352.128,1.04 L352.128,0.96 L408.04,0.96 L416.048,8.96 L416.048,73.04 L408.04,81.04 L392.208,81.04 L352.128,81.04 C335.72,81.04 321.568,71.208 315.408,57.04 L360.048,57.04 Z" id="Path" fill="#3DC491"></path>
            <path d="M315.408,25.04 L360.048,25.04 C368.848,25.04 376.048,32.168 376.048,41.04 C376.048,49.848 368.848,57.04 360.048,57.04 L315.408,57.04 L288.048,57.04 C296.848,57.04 304.048,49.848 304.048,41.04 C304.048,32.168 296.848,25.04 288.048,25.04 L315.408,25.04 Z" id="Path" fill="#6F7490"></path>
            <path d="M416.2,257.04 C416.2,300.64 381.4,336.08 338.04,337.04 C337.4,337.04 336.84,337.04 336.2,337.04 L216.04,337.04 C193.944,337.04 176.04,319.12 176.04,297.04 L248.04,297.04 L336.2,297.04 C358.28,297.04 376.2,279.12 376.2,257.04 L376.04,257.04 L352.12,81.04 L392.2,81.04 L416.2,257.04 Z" id="Path" fill="#3DC491"></path>
            <path d="M424.048,369.04 C406.36,369.04 392.048,354.72 392.048,337.04 L392.048,336.96 L456.048,336.96 L456.048,337.04 C456.048,354.72 441.72,369.04 424.048,369.04 Z" id="Path" fill="#FFFFFF"></path>
            <g id="Group" transform="translate(24.000000, 0.000000)">
                <path d="M224.048,192.968 L224.048,297.04 L152.048,297.04 L8.048,297.04 L0.048,289.024 L0.048,257.048 L0.048,225.048 L0.048,217.048 C0.048,199.368 14.36,185.048 32.048,185.048 L32.048,184.968 L216.04,184.968 L224.048,192.968 Z" id="Path" fill="#3DC491"></path>
                <circle id="Oval" fill="#298A65" cx="65" cy="241" r="8"></circle>
                <circle id="Oval" fill="#298A65" cx="33" cy="241" r="8"></circle>
                <path d="M384.04,81.032 C379.616,81.032 376.04,77.456 376.04,73.032 L376.04,8.968 C376.04,4.544 379.616,0.968 384.04,0.968 C388.464,0.968 392.04,4.544 392.04,8.968 L392.04,73.032 C392.04,77.456 388.464,81.032 384.04,81.032 Z" id="Path" fill="#298A65"></path>
            </g>
            <path d="M135.936,57.064 L167.936,57.064 C167.936,65.92 160.736,73.064 151.936,73.064 C143.088,73.064 135.936,65.92 135.936,57.064 Z" id="Path" fill="#FFFFFF"></path>
            <path d="M247.936,145.048 C247.936,149.448 244.336,153.048 239.936,153.048 L63.936,153.048 C59.536,153.048 55.936,149.448 55.936,145.048 L55.936,129.056 C55.936,124.656 59.536,121.056 63.936,121.056 L239.936,121.056 C244.336,121.056 247.936,124.656 247.936,129.056 L247.936,145.048 Z" id="Path" fill="#FFE099"></path>
            <path d="M135.936,121.12 L167.936,121.12 C167.936,129.976 160.736,137.12 151.936,137.12 C143.088,137.12 135.936,129.976 135.936,121.12 Z" id="Path" fill="#FFFFFF"></path>
            <path d="M247.936,113.12 C247.936,117.52 244.336,121.12 239.936,121.12 L63.936,121.12 C59.536,121.12 55.936,117.52 55.936,113.12 L55.936,97.128 C55.936,92.728 59.536,89.128 63.936,89.128 L239.936,89.128 C244.336,89.128 247.936,92.728 247.936,97.128 L247.936,113.12 Z" id="Path" fill="#FFB299"></path>
            <path d="M135.936,89.184 L167.936,89.184 C167.936,98.04 160.736,105.184 151.936,105.184 C143.088,105.184 135.936,98.048 135.936,89.184 Z" id="Path" fill="#FFFFFF"></path>
        </g>
    </g>
</svg>