<?xml version="1.0" encoding="UTF-8"?>
<svg width="46px" height="57px" viewBox="0 0 46 57" version="1.1" xmlns="http://www.w3.org/2000/svg" xmlns:xlink="http://www.w3.org/1999/xlink">
    <!-- Generator: Sketch 58 (84663) - https://sketch.com -->
    <title>groceries</title>
    <desc>Created with Sketch.</desc>
    <g id="Page-1" stroke="none" stroke-width="1" fill="none" fill-rule="evenodd">
        <g id="groceries" fill-rule="nonzero">
            <path d="M6.217,21.913 C5.882,21.913 5.554,21.744 5.365,21.437 C4.751,20.442 3.604,19.291 2.287,19.333 C1.727,19.303 1.273,18.915 1.257,18.364 C1.24,17.811 1.674,17.35 2.226,17.333 C4.333,17.27 6.13,18.867 7.067,20.388 C7.357,20.858 7.211,21.474 6.741,21.764 C6.578,21.865 6.396,21.913 6.217,21.913 Z" id="Path" fill="#298A65"></path>
            <path d="M30.2149428,7.20505648 C30.0578157,4.92879147 28.159392,3.12928012 25.835318,3.12928012 C25.8282825,3.12928012 25.8224195,3.13044864 25.815384,3.13044864 C25.8564246,2.78573705 25.8329728,2.42116072 25.7215767,2.04139372 C25.4073225,0.973372048 24.4645599,0.153075316 23.3552895,0.0210332495 C22.4453594,-0.0864700258 21.6104751,0.238376828 21.0253526,0.814454162 C20.4683722,0.313161715 19.739021,0 18.9299337,0 C17.1956727,0 15.7909095,1.40104812 15.7909095,3.12811161 C15.7909095,3.13395418 15.7920821,3.13862824 15.7920821,3.1444708 C13.6849373,3.30338869 12.0233768,5.05499097 12.0233768,7.19570837 C12.0233768,7.52289225 12.0667627,7.83955951 12.1394633,8.14454162 C9.63129263,8.24853936 7.6285084,10.3027867 7.6285084,12.8279452 C7.6285084,13.6832973 7.86185387,14.4825608 8.26287975,15.1731525 C7.49248793,15.80415 7,16.7611628 7,17.8326901 C7,18.8119047 7.41626956,19.6894586 8.07526531,20.3146135 C10.9035531,18.0114727 13.8748969,25.7143161 17.3739064,31.8642045 C18.5359434,33.9067668 31.0908677,31.7309939 32.0910872,33 C33.230845,31.9787189 33.9672317,14.1939379 33.9988917,12.6316349 C34.0481405,10.1251726 32.4510725,7.98679225 30.2149428,7.20505648 Z" id="Path" fill="#3DC491"></path>
            <path d="M27.6557721,30.3212111 L28.4806346,29.8332601 C30.0077293,28.9282082 31.9142838,28.9282082 33.4402216,29.8332601 L34.2650841,30.3212111 C35.7921788,31.226263 37.6987333,31.226263 39.2246711,30.3212111 L41.5558043,29.297314 C41.8982437,28.3534088 42.136563,27.6700489 42.231428,27.3672222 C44.406381,20.4570594 45.8073747,13.1812191 45.9982615,5.9236627 C46.0746162,3.00509883 43.6312648,-1.5464438 39.5717381,0.52191979 C35.5816248,2.55371562 32.7241068,10.3460754 30.7157459,14.0462751 C27.8628554,19.3040324 25.6069201,25.022315 24,30.849158 C25.2239895,31.1542702 26.5405302,30.9817161 27.6557721,30.3212111 Z" id="Path" fill="#EEAF4B"></path>
            <path d="M2.055,27.506 L3.4,28.313 C4.945,29.24 6.875,29.24 8.42,28.313 L8.766,28.105 C10.086,27.313 11.734,27.313 13.053,28.105 L13.766,28.532 C14.541,28.997 15.429,29.181 16.297,29.1 C16.937,27.033 16.722,24.449 15.73,22.7 C12.394,16.815 9.619,18.014 6.949,20.569 C6.437,21.059 5.811,21.418 5.129,21.613 C2.201,22.45 0.04,23.819 1.269,27.547 C1.486,27.389 1.788,27.346 2.055,27.506 Z" id="Path" fill="#ED3F32"></path>
            <path d="M37.594,26.356 C37.7,26.356 37.809,26.339 37.915,26.303 C38.438,26.125 38.718,25.557 38.54,25.034 C37.873,23.072 35.731,22.022 33.772,22.682 C32.853,22.995 31.852,22.501 31.54,21.582 C31.363,21.059 30.797,20.777 30.271,20.956 C29.748,21.134 29.468,21.702 29.646,22.225 C30.312,24.188 32.452,25.242 34.414,24.577 C35.332,24.265 36.333,24.76 36.646,25.677 C36.789,26.095 37.178,26.356 37.594,26.356 Z" id="Path" fill="#A46F3E"></path>
            <path d="M39.958,19.389 C40.064,19.389 40.173,19.372 40.279,19.336 C40.802,19.158 41.082,18.59 40.904,18.067 C40.581,17.116 39.907,16.347 39.007,15.903 C38.107,15.459 37.088,15.392 36.136,15.715 C35.215,16.029 34.216,15.534 33.904,14.614 C33.727,14.09 33.159,13.809 32.636,13.988 C32.113,14.166 31.833,14.734 32.011,15.257 C32.677,17.221 34.817,18.273 36.779,17.61 C37.224,17.458 37.702,17.489 38.123,17.697 C38.544,17.905 38.859,18.264 39.011,18.71 C39.152,19.127 39.541,19.389 39.958,19.389 Z" id="Path" fill="#A46F3E"></path>
            <path d="M41.157,12.421 C41.263,12.421 41.372,12.404 41.479,12.368 C42.002,12.19 42.282,11.622 42.104,11.099 C41.52,9.377 39.641,8.453 37.919,9.035 C37.589,9.147 37.237,9.125 36.926,8.972 C36.615,8.819 36.382,8.553 36.27,8.224 C36.093,7.701 35.526,7.42 35.001,7.598 C34.478,7.776 34.198,8.344 34.376,8.867 C34.66,9.702 35.251,10.377 36.041,10.766 C36.832,11.156 37.727,11.213 38.562,10.93 C39.24,10.699 39.98,11.064 40.21,11.743 C40.352,12.159 40.741,12.421 41.157,12.421 Z" id="Path" fill="#A46F3E"></path>
            <path d="M18.37,16.095 C17.425,17.352 15.934,18.84 16.508,21.468 L18.052,28.533 C18.052,28.533 18.053,28.533 18.053,28.533 L18.766,28.106 C20.086,27.314 21.734,27.314 23.053,28.106 L23.766,28.533 C24.346,28.881 24.893,28.996 24.893,28.996 C25.935,25.173 27.292,21.403 28.945,17.817 C28.171,15.881 26.518,15.233 25.318,14.57 C25.311,14.566 25.304,14.562 25.298,14.559 C24.539,14.124 24.492,13.085 25.063,12.423 C25.288,12.162 25.392,11.803 25.314,11.443 L25.193,10.891 C25.06,10.283 24.454,9.895 23.847,10.028 L17.77,11.354 C17.162,11.487 16.774,12.093 16.907,12.7 L17.028,13.252 C17.108,13.62 17.362,13.905 17.684,14.044 C18.423,14.363 18.874,15.188 18.496,15.899 C18.46,15.966 18.418,16.031 18.37,16.095 Z" id="Path" fill="#DAE7EF"></path>
            <path d="M24.746,12.899 L17.867,14.402 C17.108,14.568 16.35,14.082 16.184,13.323 L16.085,12.871 C15.919,12.112 16.405,11.354 17.164,11.188 L24.043,9.685 C24.802,9.519 25.56,10.005 25.726,10.764 L25.825,11.216 C25.991,11.976 25.505,12.733 24.746,12.899 Z" id="Path" fill="#FFFFFF"></path>
            <path d="M41.816,27.332 L40.071,52.361 C39.943,54.86 37.88,56.82 35.378,56.82 L7.307,56.82 C4.805,56.82 2.742,54.86 2.614,52.361 L0.911,28.153 C0.882,27.584 1.499,27.213 1.988,27.506 L3.333,28.313 C4.878,29.24 6.808,29.24 8.353,28.313 L8.699,28.105 C10.019,27.313 11.667,27.313 12.986,28.105 L13.699,28.533 C15.019,29.325 16.667,29.325 17.986,28.533 L18.699,28.105 C20.019,27.313 21.667,27.313 22.986,28.105 L23.699,28.533 C25.019,29.325 26.667,29.325 27.986,28.533 L28.699,28.105 C30.019,27.313 31.667,27.313 32.986,28.105 L33.699,28.533 C35.019,29.325 36.667,29.325 37.986,28.533 L41.373,27.028 C41.588,26.932 41.828,27.097 41.816,27.332 Z" id="Path" fill="#FFE099"></path>
            <path d="M14,46 L7,46 C6.448,46 6,45.553 6,45 C6,44.447 6.448,44 7,44 L14,44 C14.552,44 15,44.447 15,45 C15,45.553 14.552,46 14,46 Z" id="Path" fill="#E0B877"></path>
            <path d="M16,50 L7,50 C6.448,50 6,49.553 6,49 C6,48.447 6.448,48 7,48 L16,48 C16.552,48 17,48.447 17,49 C17,49.553 16.552,50 16,50 Z" id="Path" fill="#E0B877"></path>
            <path d="M18,54 L7,54 C6.448,54 6,53.553 6,53 C6,52.447 6.448,52 7,52 L18,52 C18.552,52 19,52.447 19,53 C19,53.553 18.552,54 18,54 Z" id="Path" fill="#E0B877"></path>
            <path d="M21,46 L19,46 C18.448,46 18,45.553 18,45 C18,44.447 18.448,44 19,44 L21,44 C21.552,44 22,44.447 22,45 C22,45.553 21.552,46 21,46 Z" id="Path" fill="#E0B877"></path>
        </g>
    </g>
</svg>